<svg id="Layer_1" data-name="Layer 1" xmlns="http://www.w3.org/2000/svg" viewBox="0 0 512 512"><defs><style>.cls-1{fill:#898989;}</style></defs><title>chat-bubble-sad-outline</title><path class="cls-1" d="M111.59,236.31h65.64a6.56,6.56,0,1,0,0-13.13H111.59a6.56,6.56,0,0,0,0,13.13Z"/><path class="cls-1" d="M111.59,288.82h105a6.56,6.56,0,1,0,0-13.13h-105a6.56,6.56,0,1,0,0,13.13Z"/><path class="cls-1" d="M295.38,328.21H111.59a6.56,6.56,0,0,0,0,13.13H295.38a6.56,6.56,0,1,0,0-13.13Z"/><path class="cls-1" d="M387.28,39.38a124.91,124.91,0,0,0-123.16,105H72.21A72.29,72.29,0,0,0,0,216.62V347.9a72.45,72.45,0,0,0,52.51,69.48V466a6.57,6.57,0,0,0,4.05,6.07,6.74,6.74,0,0,0,2.52.5,6.57,6.57,0,0,0,4.64-1.93l50.59-50.59H334.77A72.28,72.28,0,0,0,407,347.9V287.26A124.72,124.72,0,0,0,387.28,39.38Zm6.57,308.52A59.14,59.14,0,0,1,334.77,407H111.59a6.57,6.57,0,0,0-4.64,1.93L65.64,450.21v-38a6.56,6.56,0,0,0-5.26-6.43A59.23,59.23,0,0,1,13.13,347.9V216.62a59.14,59.14,0,0,1,59.08-59.08H262.73q-.16,3.25-.17,6.56A124.86,124.86,0,0,0,387.28,288.82q3.3,0,6.57-.17ZM407,274a109,109,0,0,1-13.12,1.54c-2.17.14-4.36.2-6.57.2A111.72,111.72,0,0,1,275.69,164.1c0-2.2.06-4.39.2-6.56a109.2,109.2,0,0,1,1.54-13.13A111.6,111.6,0,1,1,407,274Z"/><circle class="cls-1" cx="361.03" cy="137.85" r="13.13"/><circle class="cls-1" cx="413.54" cy="137.85" r="13.13"/><path class="cls-1" d="M387.28,183.79a45.67,45.67,0,0,0-34.19,15.34,6.56,6.56,0,1,0,9.82,8.71,32.65,32.65,0,0,1,48.73,0,6.56,6.56,0,1,0,9.82-8.71A45.67,45.67,0,0,0,387.28,183.79Z"/></svg>