<svg id="Layer_1" data-name="Layer 1" xmlns="http://www.w3.org/2000/svg" viewBox="0 0 512 512"><defs><style>.cls-1{fill:#898989;}</style></defs><title>wheel-cart-other</title><path class="cls-1" d="M463,348.6H158a5.44,5.44,0,0,1-5.34-4.38L109,126.34a5.44,5.44,0,0,1,5.34-6.51H506.55a5.44,5.44,0,0,1,5.34,6.51L468.32,344.21A5.44,5.44,0,0,1,463,348.6ZM162.42,337.7h296.1l41.39-207H121Z"/><path class="cls-1" d="M158,348.6a5.44,5.44,0,0,1-5.34-4.38L88.13,21.79H5.45a5.45,5.45,0,0,1,0-10.89H92.6a5.44,5.44,0,0,1,5.34,4.38L163.3,342.09a5.44,5.44,0,0,1-4.27,6.4A5.33,5.33,0,0,1,158,348.6Z"/><path class="cls-1" d="M223.32,501.11a49,49,0,1,1,49-49A49.07,49.07,0,0,1,223.32,501.11Zm0-87.15a38.13,38.13,0,1,0,38.13,38.13A38.17,38.17,0,0,0,223.32,414Z"/><path class="cls-1" d="M397.62,501.11a49,49,0,1,1,49-49A49.07,49.07,0,0,1,397.62,501.11Zm0-87.15a38.13,38.13,0,1,0,38.13,38.13A38.17,38.17,0,0,0,397.62,414Z"/><path class="cls-1" d="M484.77,239.66H136.17a5.45,5.45,0,0,1,0-10.89h348.6a5.45,5.45,0,0,1,0,10.89Z"/></svg>