<?xml version="1.0" encoding="UTF-8"?>
<!DOCTYPE svg PUBLIC "-//W3C//DTD SVG 1.1//EN" "http://www.w3.org/Graphics/SVG/1.1/DTD/svg11.dtd">
<!-- Creator: CorelDRAW -->
<svg xmlns="http://www.w3.org/2000/svg" xml:space="preserve" width="363px" height="512px" version="1.1" shape-rendering="geometricPrecision" 
text-rendering="geometricPrecision" image-rendering="optimizeQuality" fill-rule="evenodd" clip-rule="evenodd"
viewBox="0 0 363 511.49"
 xmlns:xlink="http://www.w3.org/1999/xlink"
 xmlns:xodm="http://www.corel.com/coreldraw/odm/2003">
 <g id="Layer_x0020_1">
  <metadata id="CorelCorpID_0Corel-Layer"/>
  <path fill="#898989" fill-rule="nonzero" d="M46.73 0l256.77 0c16.34,0 31.21,6.71 41.99,17.48 10.8,10.81 17.51,25.69 17.51,42.02l0 443.53c0,4.67 -3.79,8.46 -8.46,8.46 -2.05,0 -3.94,-0.74 -5.41,-1.97l-167.71 -130.53 -167.78 130.68c-3.66,2.86 -8.97,2.21 -11.82,-1.45 -1.2,-1.54 -1.78,-3.37 -1.78,-5.19l-0.04 -456.3c0,-12.82 5.25,-24.5 13.72,-32.98 8.53,-8.51 20.2,-13.75 33.01,-13.75zm96.42 148.54c-3.29,-3.3 -3.29,-8.66 0,-11.95 3.29,-3.3 8.66,-3.3 11.95,0l26.41 26.4 26.4 -26.4c3.29,-3.3 8.65,-3.3 11.95,0 3.29,3.29 3.29,8.65 0,11.95l-26.4 26.4 26.4 26.4c3.29,3.29 3.29,8.66 0,11.95 -3.3,3.3 -8.66,3.3 -11.95,0l-26.4 -26.4 -26.41 26.4c-3.29,3.3 -8.66,3.3 -11.95,0 -3.29,-3.29 -3.29,-8.66 0,-11.95l26.41 -26.4 -26.41 -26.4zm38.35 -86.52c31.18,0 59.41,12.64 79.84,33.07 20.43,20.43 33.08,48.68 33.08,79.85 0,31.14 -12.64,59.37 -33.08,79.81 -20.47,20.47 -48.7,33.12 -79.84,33.12 -31.18,0 -59.42,-12.66 -79.85,-33.08 -20.43,-20.44 -33.07,-48.67 -33.07,-79.85 0,-31.15 12.65,-59.39 33.07,-79.82 20.46,-20.45 48.7,-33.1 79.85,-33.1zm67.89 45.03c-17.36,-17.37 -41.38,-28.12 -67.89,-28.12 -26.53,0 -50.54,10.75 -67.91,28.1 -17.36,17.37 -28.1,41.39 -28.1,67.91 0,26.51 10.75,50.53 28.11,67.89 17.37,17.37 41.39,28.13 67.9,28.13 26.53,0 50.55,-10.75 67.89,-28.1 17.38,-17.37 28.12,-41.38 28.12,-67.92 0,-26.51 -10.75,-50.52 -28.12,-67.89zm54.11 -90.14l-256.77 0c-8.21,0 -15.67,3.35 -21.05,8.73 -5.42,5.42 -8.77,12.88 -8.77,21.09l0 439.04 158.84 -123.72c2.98,-2.71 7.58,-2.98 10.87,-0.42l159.47 124.12 0 -426.25c0,-11.7 -4.8,-22.36 -12.51,-30.09 -7.72,-7.71 -18.36,-12.5 -30.08,-12.5z"/>
 </g>
</svg>
