<svg class="svg-icon" style="width: 1em; height: 1em;vertical-align: middle;fill: currentColor;overflow: hidden;" viewBox="0 0 1024 1024" version="1.1" xmlns="http://www.w3.org/2000/svg"><path d="M491.966645 225.949968c12.479795 0 22.989096-8.538807 22.989096-19.704939s-10.509301-19.704939-22.989096-19.704939-22.989096 8.538807-22.989095 19.704939 10.509301 19.704939 22.989095 19.704939z m0-32.184734c9.195638 0 16.420783 5.911482 16.420783 13.136626s-7.225144 13.136626-16.420783 13.136626-16.420783-5.911482-16.420782-13.136626 7.225144-13.136626 16.420782-13.136626zM597.059654 463.722899c0-40.066709-32.841565-72.908275-72.908275-72.908274s-72.908275 32.841565-72.908274 72.908274 32.841565 72.908275 72.908274 72.908275 72.908275-32.841565 72.908275-72.908275z m-73.565106 63.055805c-34.812059 0-63.055805-28.243746-63.055805-63.055805s28.243746-63.055805 63.055805-63.055805 63.055805 28.243746 63.055805 63.055805c0.656831 34.812059-28.243746 63.055805-63.055805 63.055805zM629.244387 430.881334c-2.627325 0-5.25465 1.970494-5.25465 5.254651s1.970494 5.25465 5.25465 5.25465h69.624118c2.627325 0 5.25465-1.970494 5.254651-5.25465s-1.970494-5.25465-5.254651-5.254651H629.244387zM623.989737 495.907633c0 2.627325 1.970494 5.25465 5.25465 5.254651h108.377165c2.627325 0 5.25465-1.970494 5.254651-5.254651s-1.970494-5.25465-5.254651-5.25465H629.244387c-2.627325 0-5.25465 2.627325-5.25465 5.25465z" fill="#898989" /><path d="M527.435536 422.999359c-10.509301 0-18.391276 3.284157-23.645927 9.195638-7.881976 8.538807-7.225144 21.018602-6.568313 21.018601 0 2.627325 2.627325 4.597819 5.25465 4.59782s4.597819-2.627325 4.597819-5.254651c0 0-0.656831-7.881976 4.597819-13.793457 3.284157-3.940988 9.195638-5.911482 16.420783-5.911482 9.195638 0 15.10712 3.940988 16.420782 10.509301 1.313663 6.568313-1.970494 13.136626-7.225144 15.10712-17.077614 6.568313-17.077614 18.391276-17.077614 29.557408v1.313663c0 2.627325 1.970494 5.25465 5.254651 5.25465s5.25465-1.970494 5.25465-5.25465v-1.313663c0-10.509301 0-16.420783 11.166132-20.36177 9.85247-3.940988 15.10712-15.10712 13.136626-26.273252-3.940988-8.538807-11.822963-18.391276-27.586914-18.391276z" fill="#898989" /><path d="M524.151379 506.416934m-5.25465 0a5.25465 5.25465 0 1 0 10.509301 0 5.25465 5.25465 0 1 0-10.509301 0Z" fill="#898989" /><path d="M144.502886 447.958948c15.10712 0 27.586915-12.479795 27.586915-27.586915s-12.479795-27.586915-27.586915-27.586914c-15.10712 0-27.586915 12.479795-27.586914 27.586914s11.822963 27.586915 27.586914 27.586915z m0-45.978191c9.85247 0 17.734445 7.881976 17.734446 17.734445s-7.881976 17.734445-17.734446 17.734445c-9.85247 0-17.734445-7.881976-17.734445-17.734445s7.881976-17.734445 17.734445-17.734445zM871.615138 500.505452c1.313663 0 2.627325-0.656831 3.284156-1.313662l21.675433-19.704939 20.361771 17.077613c1.970494 1.313663 4.597819 1.313663 6.568313 0l21.675433-17.077613 19.704939 19.048107c1.970494 1.970494 5.25465 1.970494 7.225144 0 1.970494-1.970494 1.970494-5.25465 0-7.225144l-22.989095-22.332264c-1.970494-1.970494-4.597819-1.970494-6.568313 0l-21.675433 17.077614-21.018602-17.077614c-1.970494-1.313663-4.597819-1.313663-6.568313 0l-24.95959 22.332264c-1.970494 1.970494-1.970494 5.25465-0.656831 7.225144 1.313663 1.313663 2.627325 1.970494 3.940988 1.970494zM411.833226 489.996151c2.627325 0 5.25465-1.970494 5.254651-5.25465v-52.546504c0-2.627325-1.970494-5.25465-5.254651-5.254651s-5.25465 1.970494-5.25465 5.254651v52.546504c0 3.284157 2.627325 5.25465 5.25465 5.25465zM406.578576 555.679282c0 12.479795 10.509301 22.989096 22.989096 22.989095h5.911481c2.627325 0 5.25465-1.970494 5.254651-5.25465s-1.970494-5.25465-5.254651-5.254651h-5.911481c-7.225144 0-13.136626-5.911482-13.136626-13.136626v-17.734445c0-2.627325-1.970494-5.25465-5.254651-5.25465s-5.25465 1.970494-5.25465 5.25465v18.391277zM796.079538 405.921745v52.546504c0 2.627325 1.970494 5.25465 5.254651 5.25465s5.25465-1.970494 5.25465-5.25465v-52.546504c0-2.627325-1.970494-5.25465-5.25465-5.254651s-5.25465 2.627325-5.254651 5.254651zM487.368826 348.12059c0-2.627325-1.970494-5.25465-5.25465-5.25465h-52.546504c-12.479795 0-22.989096 10.509301-22.989096 22.989095v13.793458c0 2.627325 1.970494 5.25465 5.25465 5.25465s5.25465-1.970494 5.254651-5.25465v-13.793458c0-7.225144 5.911482-13.136626 13.136626-13.136626h52.546504c2.627325 0.656831 4.597819-1.313663 4.597819-4.597819zM745.503528 353.375241h37.439384c3.940988 0 7.225144 1.313663 9.85247 4.597819 0.656831 1.313663 2.627325 1.313663 3.940987 1.313662 1.313663 0 2.627325-0.656831 3.284157-1.313662 1.970494-1.970494 1.970494-5.25465 0-7.225145-4.597819-4.597819-10.509301-7.881976-17.077614-7.881975h-37.439384c-2.627325 0-5.25465 1.970494-5.254651 5.25465s1.970494 5.25465 5.254651 5.254651zM800.677357 505.760103c-2.627325 0-5.25465 1.970494-5.25465 5.25465v45.32136c0 1.970494-0.656831 3.940988-1.313663 5.25465-1.313663 2.627325 0 5.25465 2.627325 6.568313 0.656831 0 1.313663 0.656831 1.970494 0.656832 1.970494 0 3.940988-1.313663 4.597819-2.627326 1.313663-2.627325 1.970494-5.911482 1.970494-9.195638v-45.32136c0.656831-3.284157-1.970494-5.911482-4.597819-5.911481zM587.864015 353.375241c2.627325 0 5.25465-1.970494 5.254651-5.254651s-1.970494-5.25465-5.254651-5.25465h-52.546504c-2.627325 0-5.25465 1.970494-5.25465 5.25465s1.970494 5.25465 5.25465 5.254651h52.546504zM593.775497 579.325208h52.546504c2.627325 0 5.25465-1.970494 5.254651-5.25465s-1.970494-5.25465-5.254651-5.25465h-52.546504c-2.627325 0-5.25465 1.970494-5.25465 5.25465s1.970494 5.25465 5.25465 5.25465zM488.682489 569.472739c-2.627325 0-5.25465 1.970494-5.254651 5.25465s1.970494 5.25465 5.254651 5.254651h52.546504c2.627325 0 5.25465-1.970494 5.25465-5.254651s-1.970494-5.25465-5.25465-5.25465h-52.546504z" fill="#898989" /><path d="M311.994869 719.230276h359.943553c16.420783 0 29.557409-13.136626 29.557409-29.557409V579.325208h49.262347c2.627325 0 5.25465-1.970494 5.254651-5.25465s-1.970494-5.25465-5.254651-5.25465h-49.919179c-0.656831-0.656831-1.313663-0.656831-1.970494-0.656832-1.313663 0-1.970494 0.656831-2.627325 1.313663-1.313663 0.656831-2.627325 2.627325-2.627325 3.940988 0 1.313663 0.656831 2.627325 1.970494 3.940988v111.661321c0 13.136626-10.509301 22.989096-22.989096 22.989095H311.994869c-13.136626 0-22.989096-10.509301-22.989096-22.989095V261.418858c0-13.136626 10.509301-22.989096 22.989096-22.989095h49.919178c0 10.509301 8.538807 19.048108 19.048108 19.048107h221.352149c10.509301 0 19.048108-8.538807 19.048108-19.048107h50.57601c13.136626 0 22.989096 10.509301 22.989096 22.989095v83.417576c-0.656831-0.656831-1.970494-1.313663-2.627326-1.313663h-26.930083v-40.066709c0-16.420783-13.136626-29.557409-29.557409-29.557409H348.777421c-16.420783 0-29.557409 13.136626-29.557408 29.557409v343.522771c0 16.420783 13.136626 29.557409 29.557408 29.557408h287.692111c16.420783 0 29.557409-13.136626 29.557408-29.557408V578.011546c0-1.970494-1.313663-3.284157-3.284156-3.284157s-3.284157 1.313663-3.284157 3.284157v68.967287c0 13.136626-10.509301 22.989096-22.989095 22.989095H348.777421c-13.136626 0-22.989096-10.509301-22.989095-22.989095V303.456062c0-13.136626 10.509301-22.989096 22.989095-22.989096h287.692111c13.136626 0 22.989096 10.509301 22.989095 22.989096v40.066709h-19.048107c-2.627325 0-5.25465 1.970494-5.254651 5.25465s1.970494 5.25465 5.254651 5.254651h52.546504c2.627325 0 4.597819-1.970494 4.597819-4.597819h1.313662c1.970494 0 3.284157-1.313663 3.284157-3.284157V261.418858c0-16.420783-13.136626-29.557409-29.557409-29.557408h-50.57601v-5.911482c0-10.509301-8.538807-19.048108-19.048108-19.048108h-62.398973c0-21.675433-21.675433-40.066709-47.948685-40.066709s-47.948685 17.734445-47.948685 40.066709H380.962155c-10.509301 0-19.048108 8.538807-19.048108 19.048108v5.911482h-49.919178c-16.420783 0-29.557409 13.136626-29.557409 29.557408V689.672867c0 16.420783 13.136626 29.557409 29.557409 29.557409z m56.487491-493.937139c0-6.568313 5.911482-12.479795 12.479795-12.479795h70.28095l-0.656832-3.940988v-3.284156c0-18.391276 18.391276-33.498396 41.380372-33.498397s41.380372 15.10712 41.380372 33.498397v3.284156l-0.656831 3.940988h69.624118c6.568313 0 12.479795 5.911482 12.479795 12.479795v12.479794c0 6.568313-5.911482 12.479795-12.479795 12.479795H380.962155c-6.568313 0-12.479795-5.911482-12.479795-12.479795v-12.479794zM222.00898 800.020526h580.638871c2.627325 0 5.25465-1.970494 5.254651-5.25465s-1.970494-5.25465-5.254651-5.254651H222.00898c-2.627325 0-5.25465 1.970494-5.25465 5.254651s2.627325 5.25465 5.25465 5.25465zM995.756254 836.803079h-289.005773c-2.627325 0-5.25465 1.970494-5.25465 5.25465s1.970494 5.25465 5.25465 5.254651h289.005773c2.627325 0 5.25465-1.970494 5.25465-5.254651s-2.627325-5.25465-5.25465-5.25465zM679.163566 836.803079h-40.72354c-2.627325 0-5.25465 1.970494-5.254651 5.25465s1.970494 5.25465 5.254651 5.254651h40.72354c2.627325 0 5.25465-1.970494 5.254651-5.254651s-1.970494-5.25465-5.254651-5.25465zM611.509942 836.803079H21.018602c-2.627325 0-5.25465 1.970494-5.254651 5.25465s1.970494 5.25465 5.254651 5.254651h590.49134c2.627325 0 5.25465-1.970494 5.254651-5.254651s-2.627325-5.25465-5.254651-5.25465zM857.821681 708.720975c17.077614 0 30.871071-13.793457 30.871071-30.871071s-13.793457-30.871071-30.871071-30.871071-30.871071 13.793457-30.871072 30.871071c0.656831 17.077614 14.450289 30.871071 30.871072 30.871071z m0-51.232842c11.822963 0 21.018602 9.195638 21.018601 21.018602 0 11.822963-9.195638 21.018602-21.018601 21.018602-11.822963 0-21.018602-9.195638-21.018602-21.018602 0.656831-11.822963 9.85247-21.018602 21.018602-21.018602zM47.948685 634.499038c1.313663 0 2.627325-0.656831 3.284157-1.313663l21.675433-19.704939 20.36177 17.077614c1.970494 1.313663 4.597819 1.313663 6.568313 0l21.675433-17.077614 19.704939 19.048108c1.970494 1.970494 5.25465 1.970494 7.225144 0 1.970494-1.970494 1.970494-5.25465 0-7.225144L124.797947 603.627967c-1.970494-1.970494-4.597819-1.970494-6.568313 0l-21.675433 17.077614-21.018601-17.077614c-1.970494-1.313663-4.597819-1.313663-6.568313 0l-24.95959 22.332264c-1.970494 1.970494-1.970494 5.25465-0.656831 7.225144 1.970494 0.656831 3.284157 1.313663 4.597819 1.313663z" fill="#898989" /></svg>